<?xml version="1.0" standalone="no"?><!DOCTYPE svg PUBLIC "-//W3C//DTD SVG 1.1//EN" "http://www.w3.org/Graphics/SVG/1.1/DTD/svg11.dtd"><svg t="1652091656465" class="icon" viewBox="0 0 1024 1024" version="1.1" xmlns="http://www.w3.org/2000/svg" p-id="2379" xmlns:xlink="http://www.w3.org/1999/xlink" width="200" height="200"><defs><style type="text/css">@font-face { font-family: feedback-iconfont; src: url("//at.alicdn.com/t/font_1031158_u69w8yhxdu.woff2?t=1630033759944") format("woff2"), url("//at.alicdn.com/t/font_1031158_u69w8yhxdu.woff?t=1630033759944") format("woff"), url("//at.alicdn.com/t/font_1031158_u69w8yhxdu.ttf?t=1630033759944") format("truetype"); }
</style></defs><path d="M858.2 101.6c34.3 0 62 27.8 62 62v570.5c0 34.3-27.8 62-62 62l-62.1-0.1v-74.4l49.7 0.1V176H300.1l-0.1 49.5h-74.4v-62c0-31.8 23.9-58 54.8-61.6l7.2-0.4h570.6z" p-id="2380"></path><path d="M721.8 300.1v545.7H176V300.1h545.8z m12.4-74.5H163.6c-34.3 0-62 27.8-62 62v570.5c0 34.3 27.8 62 62 62h570.5c34.3 0 62-27.8 62-62V287.7c0.1-34.3-27.7-62.1-61.9-62.1z" p-id="2381"></path><path d="M355.9 386.9c0 51.4 41.6 93 93 93 48.4 0 88.1-36.9 92.6-84.1l0.4-9h62c0 85.6-69.4 155-155 155-82.2 0-149.5-64-154.7-144.8l-0.3-10.2h62z" p-id="2382"></path></svg>