<?xml version="1.0" standalone="no"?><!DOCTYPE svg PUBLIC "-//W3C//DTD SVG 1.1//EN" "http://www.w3.org/Graphics/SVG/1.1/DTD/svg11.dtd"><svg t="1652091777212" class="icon" viewBox="0 0 1024 1024" version="1.1" xmlns="http://www.w3.org/2000/svg" p-id="2661" xmlns:xlink="http://www.w3.org/1999/xlink" width="200" height="200"><defs><style type="text/css">@font-face { font-family: feedback-iconfont; src: url("//at.alicdn.com/t/font_1031158_u69w8yhxdu.woff2?t=1630033759944") format("woff2"), url("//at.alicdn.com/t/font_1031158_u69w8yhxdu.woff?t=1630033759944") format("woff"), url("//at.alicdn.com/t/font_1031158_u69w8yhxdu.ttf?t=1630033759944") format("truetype"); }
</style></defs><path d="M633.9 164.8H390.7V216h243.2v-51.2zM703 88c4.2 0 7.7 3.4 7.7 7.7v189.4c0 4.2-3.4 7.7-7.7 7.7H321.6c-4.2 0-7.7-3.4-7.7-7.7V95.7c0-4.2 3.4-7.7 7.7-7.7H703z m-63.1 332.8H384.6l-54.1 313.7L512.3 849 694 734.6l-54.1-313.8z m58.3-76.8c3.7 0 6.9 2.7 7.6 6.4l71.9 416.7c0.5 3.1-0.8 6.1-3.5 7.8L516.4 937.2c-2.5 1.6-5.7 1.6-8.2 0L250.4 775c-2.6-1.7-4-4.7-3.5-7.8l71.9-416.7c0.6-3.7 3.8-6.4 7.6-6.4h371.8z" p-id="2662"></path></svg>