<?xml version="1.0" standalone="no"?><!DOCTYPE svg PUBLIC "-//W3C//DTD SVG 1.1//EN" "http://www.w3.org/Graphics/SVG/1.1/DTD/svg11.dtd"><svg t="1652091913197" class="icon" viewBox="0 0 1024 1024" version="1.1" xmlns="http://www.w3.org/2000/svg" p-id="2801" xmlns:xlink="http://www.w3.org/1999/xlink" width="200" height="200"><defs><style type="text/css">@font-face { font-family: feedback-iconfont; src: url("//at.alicdn.com/t/font_1031158_u69w8yhxdu.woff2?t=1630033759944") format("woff2"), url("//at.alicdn.com/t/font_1031158_u69w8yhxdu.woff?t=1630033759944") format("woff"), url("//at.alicdn.com/t/font_1031158_u69w8yhxdu.ttf?t=1630033759944") format("truetype"); }
</style></defs><path d="M520.7 84.6c-247.4 0-448 200.6-448 448s200.6 448 448 448 448-200.6 448-448-200.6-448-448-448z m0 820c-205.4 0-372-166.6-372-372s166.6-372 372-372 372 166.6 372 372-166.6 372-372 372z" p-id="2802"></path><path d="M624.8 280.6l2.9 1 42.1 24.3c3.7 2.1 4.9 6.8 2.8 10.5l-69.4 120.2H705c4.2 0 7.7 3.4 7.7 7.7v48.6c0 4.2-3.4 7.7-7.7 7.7H552.7v64H705c4.2 0 7.7 3.4 7.7 7.7v48.6c0 4.2-3.4 7.7-7.7 7.7H552.7v152.3c0 4.2-3.4 7.7-7.7 7.7h-48.6c-4.2 0-7.7-3.4-7.7-7.7V628.6H336.4c-4.2 0-7.7-3.4-7.7-7.7v-48.6c0-4.2 3.4-7.7 7.7-7.7h152.3v-64H336.4c-4.2 0-7.7-3.4-7.7-7.7v-48.6c0-4.2 3.4-7.7 7.7-7.7h101.8l-69.3-120.2c-2.1-3.7-0.9-8.4 2.8-10.5l42.1-24.3c3.7-2.1 8.4-0.9 10.5 2.8l87.9 152.2h17.1l87.9-152.2c1.6-2.7 4.6-4.1 7.6-3.8z" p-id="2803"></path></svg>