<?xml version="1.0" standalone="no"?><!DOCTYPE svg PUBLIC "-//W3C//DTD SVG 1.1//EN" "http://www.w3.org/Graphics/SVG/1.1/DTD/svg11.dtd"><svg t="1652091718414" class="icon" viewBox="0 0 1024 1024" version="1.1" xmlns="http://www.w3.org/2000/svg" p-id="2521" xmlns:xlink="http://www.w3.org/1999/xlink" width="200" height="200"><defs><style type="text/css">@font-face { font-family: feedback-iconfont; src: url("//at.alicdn.com/t/font_1031158_u69w8yhxdu.woff2?t=1630033759944") format("woff2"), url("//at.alicdn.com/t/font_1031158_u69w8yhxdu.woff?t=1630033759944") format("woff"), url("//at.alicdn.com/t/font_1031158_u69w8yhxdu.ttf?t=1630033759944") format("truetype"); }
</style></defs><path d="M536.3 512c4.2 0 7.7 3.4 7.7 7.7v176.6c0 4.2-3.4 7.7-7.7 7.7h-48.6c-4.2 0-7.7-3.4-7.7-7.7V519.7c0-4.2 3.4-7.7 7.7-7.7h48.6z m134.6-3.3l2.4 0.3 47 12.6c3.3 0.9 5.5 3.7 5.7 7l-0.3 2.4L680 701.6c-0.9 3.3-3.7 5.5-7 5.7l-2.4-0.3-47-12.6c-3.3-0.9-5.5-3.7-5.7-7l0.3-2.4 45.7-170.6c0.9-3.3 3.8-5.5 7-5.7z m-310.8 5.7L405.8 685c1.1 4.1-1.3 8.3-5.4 9.4l-47 12.6c-4.1 1.1-8.3-1.3-9.4-5.4L298.2 531c-1.1-4.1 1.3-8.3 5.4-9.4l47-12.6c4.1-1.1 8.4 1.3 9.5 5.4z m485-92H178.9l106 371.2H739l106.1-371.2zM662.9 157.1c2.2-2.2 5.5-2.8 8.3-1.7l2.5 1.7 175.7 175.7h102.8c4.2 0 7.7 3.4 7.7 7.7v61.4c0 4.2-3.4 7.7-7.7 7.7h-23.7L810.2 824c-7.1 25-28.5 42.9-53.8 46l-7.7 0.5H275.3c-26 0-49.1-15.7-59-39.1l-2.6-7.3L95.4 409.6H71.7c-4.2 0-7.7-3.4-7.7-7.7v-61.4c0-4.2 3.4-7.7 7.7-7.7h118.4l175.8-175.7c3-3 7.9-3 10.9 0l43.4 43.4c3 3 3 7.9 0 10.9L298.8 332.8h442.1L619.5 211.4c-2.2-2.2-2.8-5.5-1.7-8.3l1.7-2.5 43.4-43.5z" p-id="2522"></path></svg>