<?xml version="1.0" standalone="no"?><!DOCTYPE svg PUBLIC "-//W3C//DTD SVG 1.1//EN" "http://www.w3.org/Graphics/SVG/1.1/DTD/svg11.dtd"><svg t="1652091354317" class="icon" viewBox="0 0 1024 1024" version="1.1" xmlns="http://www.w3.org/2000/svg" p-id="2099" xmlns:xlink="http://www.w3.org/1999/xlink" width="200" height="200"><defs><style type="text/css">@font-face { font-family: feedback-iconfont; src: url("//at.alicdn.com/t/font_1031158_u69w8yhxdu.woff2?t=1630033759944") format("woff2"), url("//at.alicdn.com/t/font_1031158_u69w8yhxdu.woff?t=1630033759944") format("woff"), url("//at.alicdn.com/t/font_1031158_u69w8yhxdu.ttf?t=1630033759944") format("truetype"); }
</style></defs><path d="M601.6 573.3H422.4V855h179.2V573.3zM512 171.7L230.4 360.8V855h115.2V560.6c0-35.3 28.7-64 64-64h204.8c35.3 0 64 28.7 64 64V855h115.2V360.9L512 171.7z m-35.7-68.6c21.6-14.5 49.8-14.5 71.4 0l294.4 197.8c17.7 11.9 28.3 31.8 28.3 53.1v513.7c0 35.3-28.7 64-64 64H217.6c-35.3 0-64-28.7-64-64V354.1c0-21.3 10.6-41.2 28.3-53.1l294.4-197.9z" p-id="2100"></path></svg>