<svg viewBox="0 0 1192 1024" xmlns="http://www.w3.org/2000/svg" width="128" height="128"><path d="M1096.088692 0H95.929047A95.929047 95.929047 0 0 0 0 95.929047v832.141906A95.929047 95.929047 0 0 0 95.929047 1021.72949h1000.159645A95.929047 95.929047 0 0 0 1192.017738 928.070953V95.929047A95.929047 95.929047 0 0 0 1096.088692 0z m-157.232816 517.676275a47.68071 47.68071 0 0 0-56.76275 0l-207.184035 139.636364L380.310421 290.05765a47.68071 47.68071 0 0 0-70.385809 0L95.929047 507.45898V95.929047h1000.159645v487.02439z"></path><path d="M843.494457 194.128603a134.527716 134.527716 0 1 0 134.527716 134.527716 134.527716 134.527716 0 0 0-134.527716-134.527716z m0 170.288248a38.59867 38.59867 0 1 1 38.598669-38.598669 38.59867 38.59867 0 0 1-38.598669 40.869179z"></path></svg>