<svg viewBox="0 0 1024 1024" xmlns="http://www.w3.org/2000/svg" width="128" height="128"><path d="M0 0m109.714286 0l201.142857 0q109.714286 0 109.714286 109.714286l0 804.571428q0 109.714286-109.714286 109.714286l-201.142857 0q-109.714286 0-109.714286-109.714286l0-804.571428q0-109.714286 109.714286-109.714286Z"></path><path d="M475.428571 0m73.142858 0l402.285714 0q73.142857 0 73.142857 73.142857l0 256q0 73.142857-73.142857 73.142857l-402.285714 0q-73.142857 0-73.142858-73.142857l0-256q0-73.142857 73.142858-73.142857Z"></path><path d="M475.428571 438.857143m73.142858 0l109.714285 0q73.142857 0 73.142857 73.142857l0 438.857143q0 73.142857-73.142857 73.142857l-109.714285 0q-73.142857 0-73.142858-73.142857l0-438.857143q0-73.142857 73.142858-73.142857Z"></path><path d="M768 438.857143m73.142857 0l109.714286 0q73.142857 0 73.142857 73.142857l0 438.857143q0 73.142857-73.142857 73.142857l-109.714286 0q-73.142857 0-73.142857-73.142857l0-438.857143q0-73.142857 73.142857-73.142857Z"></path></svg>