<svg viewBox="0 0 1024 1024" version="1.1" xmlns="http://www.w3.org/2000/svg" width="128" height="128"><path d="M511.309823 0.000427A511.99248 511.99248 0 1 1 0 511.992907C0.373328 229.650387 228.967304 0.747082 511.309823 0.000427z m0 37.22612C249.532335 37.973202 37.599448 250.204752 37.22612 511.992907A474.76636 474.76636 0 1 0 511.309823 37.226547z m383.258371 246.908373c99.294542 167.05888 79.252169 379.130432-49.567272 524.632295-128.819441 145.491196-336.891052 191.090527-514.744439 112.77701C152.392428 843.230708 45.524665 658.977415 65.865699 465.71092 86.206734 272.423092 229.116635 114.452079 419.364507 74.90066l1.343981 265.980093c0.447993 88.574699 1.791974 141.277925 1.791973 158.771002 0.863987 17.258413 4.117273 34.314163 9.653192 50.687255a126.259479 126.259479 0 0 0 61.663094 75.79622 358.821396 358.821396 0 0 0 163.485599 29.375569c82.238792 0 140.392605-14.954447 174.472104-44.852675a156.979028 156.979028 0 0 0 50.911252-92.841303c3.669279-19.946374 6.069244-40.084745 7.178561-60.32978 1.119984-21.525017 1.119984-62.335084 3.135954-122.216872zM632.652041 85.332507c92.265312 27.978256 173.128124 85.737407 230.407283 164.584249v43.242032c2.410631 67.476342 0.106665 135.038017-6.890566 202.17303a186.855922 186.855922 0 0 1-28.436915 85.801407C799.593589 620.364648 744.341067 639.991027 661.984944 639.991027c-9.333196 0-19.327716-1.58931-31.551537-1.58931L629.32409 538.797846v-195.837123L630.881401 85.332507z"></path></svg>