<svg viewBox="0 0 1024 1024" xmlns="http://www.w3.org/2000/svg" width="128" height="128"><path d="M804.535 914.275q0-14.847-10.848-25.727t-25.727-10.847-25.727 10.847-10.848 25.727 10.848 25.728 25.727 10.847 25.727-10.847 10.848-25.728z m73.15-436.53q0-107.997-95.421-107.997-14.848 0-32 2.848-9.151-17.151-30.015-27.135t-42.014-10.015-39.423 10.271q-28.575-30.27-67.998-30.27-14.271 0-31.71 5.727t-27.136 14.272V146.299q0-29.727-21.727-51.422T438.818 73.15q-29.15 0-51.134 22.271t-22.015 50.846V475.41q-11.424 0-27.712-8.576t-31.423-18.847-38.846-18.847-48.287-8.576q-38.27 0-55.71 25.44t-17.44 66.013q0 13.728 79.422 51.422 25.151 13.728 37.15 21.152 36.576 22.847 82.846 63.998 46.27 40.574 60.574 57.726 32.575 39.423 32.575 79.997v18.272h365.717V786.31q0-41.15 18.271-95.42t36.575-110.557 18.272-102.557z m73.15-2.88q0 75.998-39.423 183.994-33.727 93.725-33.727 127.42V950.85q0 30.271-21.44 51.71t-51.71 21.44H438.818q-30.27 0-51.71-21.44t-21.44-51.71V786.28q0-5.728-2.56-12.288t-8-13.44-10.27-12.863-12.864-13.728-12.288-11.712-12.288-10.847-9.727-8q-42.271-37.15-73.726-57.15-12-7.424-35.423-18.848t-41.15-21.15-36-23.136-28.287-31.423-10.015-39.711q0-71.422 38.27-118.012t107.997-46.559q38.847 0 73.15 12.576V146.267q0-59.422 43.423-102.844T438.178 0Q498.176 0 541.6 43.135t43.423 103.132v96.573q35.423 2.272 67.998 21.152 12-1.728 24.575-1.728 57.726 0 101.725 34.27 79.421-0.575 125.436 48.575t46.014 129.724z"></path></svg>