<svg viewBox="0 0 1024 1024" xmlns="http://www.w3.org/2000/svg" width="128" height="128"><path d="M118.9 434.3V591c0 21.6 17.5 39.1 39.1 39.1s39.1-17.5 39.1-39.1V434.3c0-21.6-17.5-39.1-39.1-39.1s-39.1 17.6-39.1 39.1z"></path><path d="M852.4 64H225.9c-59 0-107 48-107 107v53.2c0 21.6 17.5 39.1 39.1 39.1s39.1-17.5 39.1-39.1V171c0-15.9 12.9-28.8 28.8-28.8h626.5c15.9 0 28.8 12.9 28.8 28.8v682c0 15.9-12.9 28.8-28.8 28.8H225.9c-15.9 0-28.8-12.9-28.8-28.8v-53.2c0-21.6-17.5-39.1-39.1-39.1s-39.1 17.5-39.1 39.1V853c0 59 48 107 107 107h626.5c59 0 107-48 107-107V171c0-59-48-107-107-107z"></path><path d="M103.7 365.6h106.6c21.6 0 39.1-17.5 39.1-39.1s-17.5-39.1-39.1-39.1H103.7c-21.6 0-39.1 17.5-39.1 39.1s17.5 39.1 39.1 39.1zM249.4 697.4c0-21.6-17.5-39.1-39.1-39.1H103.7c-21.6 0-39.1 17.5-39.1 39.1s17.5 39.1 39.1 39.1h106.6c21.6 0 39.1-17.5 39.1-39.1zM432.1 742.7l63.8 32.4c14.4 7.3 30.2 11 46 11s31.6-3.7 46-11l63.8-32.4c43-21.8 64.7-71.4 51.7-117.8l-65.9-235.8c0.8-1.8 1.5-3.6 2.2-5.5l17.7-51c7.8-22.3 4.2-47.1-9.5-66.4-13.7-19.3-36-30.7-59.6-30.7h-95.7c-23.6 0-45.9 11.5-59.6 30.7-13.7 19.3-17.2 44.1-9.5 66.4l17.7 51c1.1 3.2 2.4 6.2 3.9 9.2l-64.9 232.1c-12.9 46.5 8.9 96 51.9 117.8z m146.5-427.1l-12.9 37.1h-50.4l-12.9-37.1h76.2zM457.4 646.5l59.8-213.8h49.4l59.8 213.8c2.7 9.8-1.9 20.3-11 24.9l-63.8 32.4c-6.1 3.1-13.4 3.1-19.5 0l-63.8-32.4c-9.1-4.6-13.7-15.1-10.9-24.9z"></path></svg>