<svg viewBox="0 0 1024 1024" xmlns="http://www.w3.org/2000/svg" width="128" height="128"><path d="M243.998665 244.020666l44.623313 0 0 89.289606-44.623313 0L243.998665 244.020666zM333.288271 779.977287l89.421612 0 0-44.623313-89.421612 0L333.288271 779.977287zM333.288271 288.643979l89.421612 0L422.709883 244.020666l-89.421612 0L333.288271 288.643979zM243.998665 601.310072l44.623313 0 0-89.333608-44.623313 0L243.998665 601.310072zM243.998665 735.353974l44.623313 0L288.621978 645.934408l-44.623313 0L243.998665 735.353974zM243.998665 467.353151l44.623313 0 0-89.419566-44.623313 0L243.998665 467.353151zM467.375152 779.977287l89.245603 0 0-44.623313-89.245603 0L467.375152 779.977287zM735.331973 377.933585l44.665269 0 0-89.289606-44.665269 0L735.331973 377.933585zM735.331973 645.934408l44.665269 0 0-89.291652-44.665269 0L735.331973 645.934408zM467.375152 288.643979l89.245603 0L556.620755 244.020666l-89.245603 0L467.375152 288.643979zM958.70846 244.020666l0 535.956621c0 98.623181-80.000032 178.709171-178.711218 178.709171L243.998665 958.686459c-98.711186 0-178.709171-80.08599-178.709171-178.709171L65.289494 244.020666c0-98.755188 79.997985-178.709171 178.709171-178.709171l535.998577 0C878.708428 65.311495 958.70846 145.265478 958.70846 244.020666zM869.286848 288.643979c0-73.979922-59.932997-133.956921-133.954875-133.956921L288.623002 154.687058c-73.979922 0-133.912919 59.977-133.912919 133.956921l0 446.709995c0 73.979922 59.932997 133.956921 133.912919 133.956921l446.708971 0c74.021877 0 133.954875-59.977 133.954875-133.956921L869.286848 288.643979zM735.331973 511.976464l44.665269 0 0-89.289606-44.665269 0L735.331973 511.976464zM735.331973 779.977287l44.665269 0 0-89.289606-44.665269 0L735.331973 779.977287zM601.289094 779.977287l89.419566 0 0-44.623313-89.419566 0L601.289094 779.977287zM601.289094 288.643979l89.419566 0L690.70866 244.020666l-89.419566 0L601.289094 288.643979z"></path></svg>