<svg viewBox="0 0 1024 1024" xmlns="http://www.w3.org/2000/svg" width="128" height="128"><path d="M640 0a42.666667 42.666667 0 0 1 0 85.333333h-85.333333l0.042666 66.133334C770.304 172.842667 938.666667 354.730667 938.666667 576c0 235.648-191.018667 426.666667-426.666667 426.666667s-426.666667-191.018667-426.666667-426.666667c0-221.226667 168.405333-403.157333 384-424.533333V85.333333H384a42.666667 42.666667 0 1 1 0-85.333333h256z m-128 234.666667a341.333333 341.333333 0 1 0 0 682.666666 341.333333 341.333333 0 0 0 0-682.666666z"></path><path d="M469.333333 640m0-42.666667l0-170.666666q0-42.666667 42.666667-42.666667l0 0q42.666667 0 42.666667 42.666667l0 170.666666q0 42.666667-42.666667 42.666667l0 0q-42.666667 0-42.666667-42.666667Z"></path><path d="M469.333333 554.666667m42.666667 0l170.666667 0q42.666667 0 42.666666 42.666666l0 0q0 42.666667-42.666666 42.666667l-170.666667 0q-42.666667 0-42.666667-42.666667l0 0q0-42.666667 42.666667-42.666666Z"></path></svg>