<?xml version="1.0" standalone="no"?><!DOCTYPE svg PUBLIC "-//W3C//DTD SVG 1.1//EN" "http://www.w3.org/Graphics/SVG/1.1/DTD/svg11.dtd"><svg t="1652091560804" class="icon" viewBox="0 0 1024 1024" version="1.1" xmlns="http://www.w3.org/2000/svg" p-id="2239" xmlns:xlink="http://www.w3.org/1999/xlink" width="200" height="200"><defs><style type="text/css">@font-face { font-family: feedback-iconfont; src: url("//at.alicdn.com/t/font_1031158_u69w8yhxdu.woff2?t=1630033759944") format("woff2"), url("//at.alicdn.com/t/font_1031158_u69w8yhxdu.woff?t=1630033759944") format("woff"), url("//at.alicdn.com/t/font_1031158_u69w8yhxdu.ttf?t=1630033759944") format("truetype"); }
</style></defs><path d="M583.6 188.8v155.6h155.6L583.6 188.8z m111.2 345.5c4.2 0 7.7 3.4 7.7 7.7v61.4c0 4.2-3.4 7.7-7.7 7.7H326.2c-4.2 0-7.7-3.4-7.7-7.7V542c0-4.2 3.4-7.7 7.7-7.7h368.6z m-128 128c4.2 0 7.7 3.4 7.7 7.7v61.4c0 4.2-3.4 7.7-7.7 7.7H326.2c-4.2 0-7.7-3.4-7.7-7.7V670c0-4.2 3.4-7.7 7.7-7.7h240.6z m-60-527.9H230.4v755.2h563.2l-0.1-468.4H545.1c-19.1 0-34.9-13.9-37.9-32.2l-0.5-6.2 0.1-248.4z m27.8-76.8c2 0 3.9 0.1 5.8 0.3 10.9-1.4 22.6 1.8 31.9 11.1l6.6 6.5 1 0.9 271.8 271.8 0.9 0.9 6.5 6.7c9.2 9.2 12.4 20.9 11 31.8l0.3 5.9v509c0 35.3-28.7 64-64 64H217.6c-35.3 0-64-28.7-64-64V121.6c0-35.3 28.7-64 64-64h317z" p-id="2240"></path></svg>