<svg viewBox="0 0 1024 1024" xmlns="http://www.w3.org/2000/svg" width="128" height="128"><path d="M936.16128 716.40064c-23.07072-38.46144-22.70208-39.1936-22.70208-39.1936s-79.67232 22.34368-94.51008-54.02624c-46.14656 0-46.14656 0-46.14656 0s-12.73856 76.48256-94.14144 53.84704c-23.54176 39.2192-24.33536 40.448-24.35584 40.46848 0.03072 0.0256 63.7184 44.51328 0 104.94464 24.72448 40.65792 24.72448 40.65792 24.72448 40.65792s70.3488-30.35136 93.39904 52.56192c46.6944 0 46.6944 0 46.6944 0s14.65856-76.19072 93.76768-53.66272c22.52288-38.46144 22.89664-38.81984 22.89664-38.81984S876.0576 771.66592 936.16128 716.40064zM794.86976 823.26528c-29.74208 0-53.85728-24.11008-53.85728-53.84704 0-29.7472 24.1152-53.84704 53.85728-53.84704 29.73696 0 53.85216 24.09984 53.85216 53.84704C848.72192 799.1552 824.60672 823.26528 794.86976 823.26528z"></path><path d="M924.96896 339.22048c-22.47168-53.12-54.6304-100.81792-95.58016-141.7728-40.96-40.96-88.65792-73.1136-141.77792-95.58016-55.00928-23.26528-113.42848-35.06176-173.63456-35.06176s-118.62016 11.79648-173.62944 35.06176c-53.12 22.46656-100.81792 54.62528-141.7728 95.58016-40.96 40.95488-73.1136 88.65792-95.58016 141.7728-23.26528 55.00416-35.06688 113.42336-35.06688 173.63456 0 60.20608 11.79648 118.62016 35.06688 173.63456 22.46656 53.12 54.62528 100.81792 95.58016 141.76768 40.95488 40.96 88.6528 73.11872 141.7728 95.58016 55.00928 23.2704 113.42336 35.072 173.62944 35.072 58.29632 0 114.88256-11.16672 168.36096-32.98816-14.03904-11.71968-26.37312-25.40032-36.57728-40.64256-41.23648 14.6688-85.57056 22.72768-131.78368 22.72768-217.89184 0-395.15648-177.26976-395.15648-395.15136 0-217.89184 177.26464-395.15648 395.15648-395.15648 104.97024 0 200.43264 41.22112 271.26784 108.22144-182.71744 92.2368-298.46528 366.27456-298.46528 366.27456L415.232 456.81664l-147.58912 87.34208c62.58176 21.8624 152.04864 91.7504 228.02432 183.4496 53.6576-96.06144 219.09504-292.61312 299.56608-310.07744-31.03744-69.36064-13.66016-125.824-9.04192-190.70464 75.648 72.02816 122.94144 173.57824 122.94144 286.0288 0 34.048-4.33664 67.10272-12.47744 98.64704 16.10752 8.8576 30.81216 19.96288 43.66336 32.91648 13.09184-42.39872 19.70688-86.4768 19.70688-131.5584C960.03072 452.64384 948.22912 394.22464 924.96896 339.22048z"></path></svg>